<svg xmlns="http://www.w3.org/2000/svg" viewBox="0 0 37.5 27.5"><defs><style>.cls-1{fill:none;stroke:#444;stroke-linecap:round;stroke-linejoin:round;stroke-width:1.5px;}</style></defs><g id="Capa_2" data-name="Capa 2"><g id="icon"><rect class="cls-1" x="0.75" y="17.75" width="36" height="9"/><path class="cls-1" d="M34.75,11.75h-32a2,2,0,0,0-2,2v4h36v-4A2,2,0,0,0,34.75,11.75Z"/><path class="cls-1" d="M14.58,6.75H9.92A2.17,2.17,0,0,0,7.75,8.92v2.83h9V8.92A2.17,2.17,0,0,0,14.58,6.75Z"/><path class="cls-1" d="M27.58,6.75H22.92a2.17,2.17,0,0,0-2.17,2.17v2.83h9V8.92A2.17,2.17,0,0,0,27.58,6.75Z"/><path class="cls-1" d="M32.75,11.75v-9a2,2,0,0,0-2-2h-24a2,2,0,0,0-2,2v9"/></g></g></svg>