<svg xmlns="http://www.w3.org/2000/svg" viewBox="0 0 41.5 27.5"><defs><style>.cls-1{fill:none;stroke:#444;stroke-linecap:round;stroke-linejoin:round;stroke-width:1.5px;}</style></defs><g id="Capa_2" data-name="Capa 2"><g id="icon"><path class="cls-1" d="M7.75,26.75h-7V9.46A1.7,1.7,0,0,1,2.46,7.75H6A1.7,1.7,0,0,1,7.75,9.46Z"/><path class="cls-1" d="M35.75,7.75V3.32A2.57,2.57,0,0,0,33.18.75H23.32a2.57,2.57,0,0,0-2.57,2.57v9.43"/><path class="cls-1" d="M5.75,7.75V3.32A2.57,2.57,0,0,1,8.32.75h9.86a2.57,2.57,0,0,1,2.57,2.57V13.75"/><path class="cls-1" d="M40.75,26.75h-7V9.46a1.7,1.7,0,0,1,1.71-1.71H39a1.7,1.7,0,0,1,1.71,1.71Z"/><line class="cls-1" x1="7.75" y1="13.75" x2="33.75" y2="13.75"/><line class="cls-1" x1="7.75" y1="26.75" x2="33.75" y2="26.75"/><line class="cls-1" x1="7.75" y1="18.75" x2="33.75" y2="18.75"/><line class="cls-1" x1="12.75" y1="7.75" x2="14.75" y2="7.75"/><line class="cls-1" x1="26.75" y1="7.75" x2="28.75" y2="7.75"/></g></g></svg>