<svg xmlns="http://www.w3.org/2000/svg" viewBox="0 0 35.5 36.5"><defs><style>.cls-1{fill:none;stroke:#444;stroke-linecap:round;stroke-linejoin:round;stroke-width:1.5px;}</style></defs><g id="Capa_2" data-name="Capa 2"><g id="icon"><polyline class="cls-1" points="10.82 13.75 6.75 13.75 6.75 0.75 28.75 0.75 28.75 13.75 24.82 13.75"/><polyline class="cls-1" points="10.82 19.75 0.75 19.75 0.75 16.75 10.82 16.75"/><polyline class="cls-1" points="24.82 16.75 34.75 16.75 34.75 19.75 24.82 19.75"/><line class="cls-1" x1="2.83" y1="19.75" x2="2.82" y2="35.75"/><line class="cls-1" x1="32.91" y1="19.75" x2="32.82" y2="35.75"/><path class="cls-1" d="M23.25,26.75h-11a1.5,1.5,0,0,1-1.5-1.5h0a1.5,1.5,0,0,1,1.5-1.5h11a1.5,1.5,0,0,1,1.5,1.5h0A1.5,1.5,0,0,1,23.25,26.75Z"/><line class="cls-1" x1="17.75" y1="26.75" x2="17.75" y2="33.75"/><path class="cls-1" d="M13.75,35.75h0a2,2,0,0,1,2-2h4a2,2,0,0,1,2,2h0"/><rect class="cls-1" x="10.82" y="5.75" width="14" height="15" rx="2"/></g></g></svg>