<svg xmlns="http://www.w3.org/2000/svg" viewBox="0 0 25.5 33.5"><defs><style>.cls-1{fill:none;stroke:#444;stroke-linecap:round;stroke-linejoin:round;stroke-width:1.5px;}</style></defs><g id="Capa_2" data-name="Capa 2"><g id="icon"><path class="cls-1" d="M24.75,16.75H.75v-1.5a1.5,1.5,0,0,1,1.5-1.5h21a1.5,1.5,0,0,1,1.5,1.5Z"/><path class="cls-1" d="M22.75,16.75v1c0,4-2.39,5.88-5.82,7.53a1.7,1.7,0,0,0-1,1.79l.78,5.68h-8l.78-5.66a1.71,1.71,0,0,0-1-1.8c-3.47-1.62-5.8-3.47-5.8-7.54v-1"/><path class="cls-1" d="M3.75,4.75v-2a2,2,0,0,1,2-2h14a2,2,0,0,1,2,2v2"/><polyline class="cls-1" points="21.75 13.75 21.75 4.75 3.75 4.75 3.75 13.75"/><line class="cls-1" x1="6.75" y1="32.75" x2="18.75" y2="32.75"/><line class="cls-1" x1="17.75" y1="7.75" x2="17.75" y2="8.75"/></g></g></svg>