<svg xmlns="http://www.w3.org/2000/svg" viewBox="0 0 33.5 39.5"><defs><style>.cls-1{fill:none;stroke:#444;stroke-linecap:round;stroke-linejoin:round;stroke-width:1.5px;}</style></defs><g id="Capa_2" data-name="Capa 2"><g id="icon"><polyline class="cls-1" points="14.75 38.75 0.75 38.75 0.75 19.75 14.75 19.75"/><rect class="cls-1" x="14.75" y="19.75" width="18" height="19"/><line class="cls-1" x1="14.75" y1="25.75" x2="32.75" y2="25.75"/><line class="cls-1" x1="0.75" y1="29.75" x2="14.75" y2="29.75"/><rect class="cls-1" x="18.75" y="28.75" width="10" height="7"/><rect class="cls-1" x="19.75" y="0.75" width="8" height="8"/><polygon class="cls-1" points="28.75 8.75 18.75 8.75 16.75 13.75 30.75 13.75 28.75 8.75"/><line class="cls-1" x1="18.75" y1="22.75" x2="20.75" y2="22.75"/><line class="cls-1" x1="26.75" y1="22.75" x2="28.75" y2="22.75"/><path class="cls-1" d="M6.75,16.26v-1a1.5,1.5,0,0,0-1.5-1.5h0a1.5,1.5,0,0,0-1.5,1.5v4.5"/><line class="cls-1" x1="8.75" y1="23.75" x2="6.75" y2="23.75"/><line class="cls-1" x1="8.75" y1="33.75" x2="6.75" y2="33.75"/></g></g></svg>