<svg id="Capa_1" data-name="Capa 1" xmlns="http://www.w3.org/2000/svg" viewBox="0 0 312 312"><defs><style>.cls-1{fill:#fff;}.cls-2{fill:none;stroke:#6c5ce7;stroke-miterlimit:10;stroke-width:12px;}</style></defs><path class="cls-1" d="M292.78,399.36H191.07V182H408.46V399.36H306.34a14,14,0,0,1,1.82-.39,107.77,107.77,0,0,0,36.09-9.23c17.94-8,32.79-20,45.37-35a3.33,3.33,0,0,0,.64-2.44c-.79-4.22-1.51-8.48-2.67-12.61C381,316.44,368.2,297.75,347.37,285c-3.2-2-3.2-2-6,.69-.67.63-1.31,1.29-2,1.89-17.5,15-37.32,19-59.25,12.08-9.26-2.92-17-8.37-23.8-15.3-.78-.81-1.4-1.49-2.63-.59-4.62,3.35-9.59,6.28-13.88,10-17.85,15.49-27.33,35.53-31,58.58a3.44,3.44,0,0,0,.79,2.59c5.67,5.79,11.1,11.89,17.24,17.15a111.53,111.53,0,0,0,55,25.84C285.52,398.49,289.16,398.88,292.78,399.36Zm61-162.68c.15-29.6-24.1-54-53.94-54.28-29.66-.27-54.12,24-54.44,54-.32,29.58,24,54.24,54,54.33S353.38,267,353.75,236.68Z" transform="translate(-143.77 -134.67)"/><path d="M292.78,399.36c-3.62-.48-7.26-.87-10.86-1.47a111.53,111.53,0,0,1-55-25.84c-6.14-5.26-11.57-11.36-17.24-17.15a3.44,3.44,0,0,1-.79-2.59c3.65-23.05,13.13-43.09,31-58.58,4.29-3.73,9.26-6.66,13.88-10,1.23-.9,1.85-.22,2.63.59,6.76,6.93,14.54,12.38,23.8,15.3,21.93,6.92,41.75,3,59.25-12.08.7-.6,1.34-1.26,2-1.89,2.77-2.65,2.77-2.65,6-.69,20.83,12.8,33.67,31.49,40.22,54.75,1.16,4.13,1.88,8.39,2.67,12.61a3.33,3.33,0,0,1-.64,2.44c-12.58,14.95-27.43,27-45.37,35A107.77,107.77,0,0,1,308.16,399a14,14,0,0,0-1.82.39Z" transform="translate(-143.77 -134.67)"/><path d="M353.75,236.68c-.37,30.28-24.43,54.11-54.35,54s-54.35-24.75-54-54.33c.32-30,24.78-54.24,54.44-54C329.65,182.68,353.9,207.08,353.75,236.68Z" transform="translate(-143.77 -134.67)"/><circle class="cls-2" cx="156" cy="156" r="150"/></svg>